<svg width="128" height="38" viewBox="0 0 128 38" fill="none" xmlns="http://www.w3.org/2000/svg">
<rect x="117.616" y="18.103" width="10.2658" height="10.2658" rx="5.13289" fill="white"/>
<path d="M15.0291 22.1389C15.0291 21.4115 14.7358 20.731 14.1492 20.0975C13.5626 19.4639 12.8234 18.889 11.9318 18.3728C11.0636 17.8331 9.87862 17.1761 8.37688 16.4018C6.59357 15.4632 5.16222 14.6654 4.08285 14.0084C3.00348 13.3279 2.07662 12.5301 1.30229 11.615C0.551419 10.6999 0.175985 9.6909 0.175985 8.58806C0.175985 7.41483 0.668743 6.15947 1.65426 4.82199C2.63977 3.46104 3.83647 2.323 5.24435 1.40788C6.67569 0.469293 7.98971 0 9.18641 0C10.6412 0 12.3307 0.175985 14.2548 0.527956C16.1789 0.879926 17.5868 1.25536 18.4784 1.65426V8.48247H17.1409C15.9912 6.58184 14.7241 5.10356 13.3397 4.04765C11.9787 2.99174 10.5474 2.46379 9.04562 2.46379C7.70814 2.46379 6.6405 2.88615 5.8427 3.73088C5.06836 4.55214 4.6812 5.63152 4.6812 6.969C4.6812 7.74333 4.97451 8.47074 5.56112 9.15121C6.1712 9.80823 6.91034 10.3948 7.77853 10.9111C8.67019 11.4273 9.90208 12.096 11.4742 12.9173C13.2106 13.7855 14.6185 14.5598 15.6979 15.2403C16.7772 15.8973 17.6806 16.6716 18.408 17.5633C19.1589 18.4315 19.5343 19.417 19.5343 20.5198C19.5343 21.6931 19.0064 22.9602 17.9505 24.3211C16.8945 25.6586 15.604 26.7966 14.0788 27.7352C12.5771 28.6503 11.2044 29.1079 9.96074 29.1079C8.43554 29.1079 6.61703 28.9319 4.50521 28.5799C2.41686 28.228 0.915121 27.8525 0 27.4536V20.6254H1.33749C2.53418 22.5261 3.89513 24.0043 5.42033 25.0602C6.94554 26.1162 8.51767 26.6441 10.1367 26.6441C11.0988 26.6441 11.9552 26.4329 12.7061 26.0106C13.457 25.5882 14.0319 25.0368 14.4308 24.3563C14.8297 23.6524 15.0291 22.9132 15.0291 22.1389Z" fill="white"/>
<path d="M44.6718 28.3688H37.9844V24.7083L33.5144 28.4392C33.0216 28.6269 32.3764 28.7207 31.5786 28.7207C29.983 28.7207 28.7159 28.2397 27.7773 27.2777C26.8387 26.2921 26.3694 24.9664 26.3694 23.3004V14.8883L23.2369 13.0581V11.967L29.2556 9.01043H30.593V21.5406C30.593 22.8311 30.7925 23.7345 31.1914 24.2507C31.5903 24.7669 32.306 25.025 33.3384 25.025C34.0658 25.025 34.7815 24.896 35.4854 24.6379C36.1894 24.3563 37.0224 23.8166 37.9844 23.0188V14.8883L34.8519 13.0581V11.967L40.8706 9.01043H42.208V25.729L45.3758 26.9609L44.6718 28.3688Z" fill="white"/>
<path d="M59.4271 28.7559C58.16 28.7559 56.9867 28.3688 55.9074 27.5944V34.4226L60.8349 35.9361L60.131 37.344H48.5512V36.2529L51.6837 33.7891V14.8883L48.5512 13.0581V11.967L54.5699 9.01043L55.7314 13.586L60.7646 9.60877C61.5154 9.42106 62.3719 9.3272 63.3339 9.3272C64.601 9.3272 65.7391 9.73783 66.748 10.5591C67.7805 11.3569 68.5783 12.448 69.1414 13.8324C69.7281 15.2168 70.0214 16.742 70.0214 18.408C70.0214 20.2148 69.4699 21.916 68.3671 23.5116C67.2643 25.0837 65.8799 26.3508 64.2139 27.3129C62.5713 28.2514 60.9757 28.7207 59.4271 28.7207V28.7559ZM61.5389 12.7061C60.6472 12.7061 59.779 12.8821 58.9343 13.2341C58.0896 13.586 57.0806 14.2782 55.9074 15.3107V21.259C55.9074 22.5495 56.3884 23.6289 57.3504 24.4971C58.3125 25.3653 59.6852 25.7994 61.4685 25.7994C64.12 25.7994 65.4458 23.9105 65.4458 20.1327C65.4458 18.0443 65.1055 16.2845 64.425 14.8531C63.7446 13.4218 62.7825 12.7061 61.5389 12.7061Z" fill="white"/>
<path d="M92.771 28.3688H86.0836V25.3066L82.1063 28.4392C81.637 28.6269 81.0504 28.7207 80.3465 28.7207C78.3285 28.7207 76.862 28.2162 75.9468 27.2073C75.0552 26.1983 74.6093 24.9899 74.6093 23.582C74.6093 22.7372 74.9144 21.9043 75.5245 21.083C76.1345 20.2617 77.0027 19.4874 78.129 18.76H86.0836V16.5074C86.0836 14.9822 85.6729 13.9028 84.8517 13.2693C84.0539 12.6357 82.951 12.3189 81.5431 12.3189C80.0883 12.3189 78.305 13.1989 76.1932 14.9587L75.1373 13.6212L80.2057 9.60877C81.1442 9.42106 82.2706 9.3272 83.5846 9.3272C85.7199 9.3272 87.3741 9.85515 88.5473 10.9111C89.7206 11.9435 90.3072 13.457 90.3072 15.4515V25.729L93.4749 26.9609L92.771 28.3688ZM81.4728 25.729C82.9041 25.729 84.441 25.072 86.0836 23.758V20.2031H79.8537C79.5486 20.5785 79.3257 20.9539 79.185 21.3294C79.0676 21.7048 79.009 22.1154 79.009 22.5613C79.009 23.4295 79.2319 24.1803 79.6777 24.8139C80.1235 25.424 80.7219 25.729 81.4728 25.729Z" fill="white"/>
<path d="M109 9.3624C109.774 9.3624 110.455 9.57358 111.042 9.99594C111.628 10.4183 112.086 11.0049 112.414 11.7558L110.091 14.6771H108.754C108.66 14.0905 108.484 13.6799 108.226 13.4452C107.991 13.1871 107.663 13.0581 107.24 13.0581C106.724 13.0581 106.173 13.1989 105.586 13.4804C105.023 13.7386 104.378 14.243 103.65 14.9939V25.4826L108.578 26.9961L107.874 28.404H96.294V27.3129L99.4265 24.8491V14.8883L96.294 13.0581V11.967L102.313 9.01043L103.404 13.3397L107.064 9.60877C107.557 9.42106 108.202 9.3272 109 9.3272V9.3624Z" fill="white"/>
</svg>
