<svg width="362" height="362" viewBox="0 0 362 362" fill="none" xmlns="http://www.w3.org/2000/svg">
<rect width="362" height="362" rx="34" fill="url(#paint0_linear_5_35)"/>
<rect x="271.421" y="180.54" width="17.3186" height="17.3186" rx="8.65928" fill="white"/>
<path d="M98.3544 187.349C98.3544 186.122 97.8596 184.974 96.8699 183.905C95.8803 182.836 94.6334 181.866 93.1291 180.995C91.6645 180.085 89.6654 178.976 87.132 177.67C84.1235 176.087 81.7088 174.741 79.8878 173.632C78.0669 172.484 76.5033 171.139 75.197 169.595C73.9303 168.051 73.2969 166.349 73.2969 164.488C73.2969 162.509 74.1282 160.391 75.7908 158.135C77.4533 155.839 79.4722 153.919 81.8473 152.375C84.262 150.792 86.4788 150 88.4976 150C90.9519 150 93.8021 150.297 97.0481 150.891C100.294 151.484 102.669 152.118 104.173 152.791V164.31H101.917C99.9774 161.104 97.8398 158.61 95.5042 156.828C93.2083 155.047 90.7936 154.156 88.2601 154.156C86.0038 154.156 84.2026 154.869 82.8567 156.294C81.5504 157.68 80.8973 159.5 80.8973 161.757C80.8973 163.063 81.3921 164.29 82.3817 165.438C83.4109 166.547 84.6579 167.536 86.1225 168.407C87.6268 169.278 89.705 170.406 92.3572 171.792C95.2865 173.256 97.6616 174.563 99.4826 175.711C101.303 176.819 102.828 178.125 104.055 179.63C105.321 181.094 105.955 182.757 105.955 184.617C105.955 186.597 105.064 188.734 103.283 191.03C101.501 193.287 99.3242 195.206 96.7512 196.79C94.2177 198.334 91.902 199.106 89.804 199.106C87.2309 199.106 84.1631 198.809 80.6004 198.215C77.0773 197.621 74.5438 196.988 73 196.315V184.795H75.2564C77.2752 188.002 79.5712 190.496 82.1442 192.277C84.7172 194.058 87.3695 194.949 90.1008 194.949C91.7238 194.949 93.1687 194.593 94.4354 193.88C95.7022 193.168 96.672 192.238 97.345 191.09C98.0179 189.902 98.3544 188.655 98.3544 187.349Z" fill="white"/>
<path d="M148.362 197.859H137.08V191.683L129.539 197.977C128.708 198.294 127.62 198.452 126.274 198.452C123.582 198.452 121.444 197.641 119.861 196.018C118.277 194.355 117.486 192.119 117.486 189.308V175.117L112.201 172.029V170.189L122.355 165.201H124.611V186.339C124.611 188.516 124.948 190.041 125.62 190.911C126.293 191.782 127.501 192.218 129.243 192.218C130.47 192.218 131.677 192 132.865 191.565C134.052 191.09 135.457 190.179 137.08 188.833V175.117L131.796 172.029V170.189L141.949 165.201H144.206V193.405L149.55 195.484L148.362 197.859Z" fill="white"/>
<path d="M173.255 198.512C171.117 198.512 169.138 197.859 167.317 196.552V208.072L175.63 210.625L174.442 213H154.907V211.159L160.191 207.003V175.117L154.907 172.029V170.189L165.06 165.201L167.02 172.92L175.511 166.21C176.778 165.893 178.223 165.735 179.846 165.735C181.983 165.735 183.903 166.428 185.605 167.813C187.347 169.159 188.693 171 189.643 173.336C190.632 175.671 191.127 178.244 191.127 181.055C191.127 184.103 190.197 186.973 188.337 189.664C186.476 192.317 184.141 194.454 181.33 196.077C178.559 197.661 175.867 198.452 173.255 198.452V198.512ZM176.817 171.435C175.313 171.435 173.848 171.732 172.423 172.326C170.998 172.92 169.296 174.088 167.317 175.829V185.864C167.317 188.041 168.128 189.862 169.751 191.327C171.374 192.792 173.69 193.524 176.698 193.524C181.172 193.524 183.408 190.337 183.408 183.964C183.408 180.441 182.834 177.472 181.686 175.057C180.538 172.643 178.915 171.435 176.817 171.435Z" fill="white"/>
<path d="M229.506 197.859H218.225V192.693L211.515 197.977C210.723 198.294 209.733 198.452 208.546 198.452C205.142 198.452 202.668 197.601 201.124 195.899C199.619 194.197 198.867 192.158 198.867 189.783C198.867 188.358 199.382 186.953 200.411 185.567C201.44 184.182 202.905 182.876 204.805 181.648H218.225V177.848C218.225 175.275 217.532 173.454 216.146 172.385C214.8 171.317 212.94 170.782 210.565 170.782C208.11 170.782 205.102 172.267 201.539 175.236L199.758 172.979L208.308 166.21C209.892 165.893 211.792 165.735 214.009 165.735C217.611 165.735 220.402 166.626 222.381 168.407C224.36 170.149 225.35 172.702 225.35 176.067V193.405L230.694 195.484L229.506 197.859ZM210.446 193.405C212.861 193.405 215.454 192.297 218.225 190.08V184.083H207.715C207.2 184.716 206.824 185.35 206.586 185.983C206.389 186.616 206.29 187.309 206.29 188.061C206.29 189.526 206.666 190.793 207.418 191.861C208.17 192.891 209.179 193.405 210.446 193.405Z" fill="white"/>
<path d="M256.885 165.795C258.191 165.795 259.339 166.151 260.329 166.863C261.319 167.576 262.091 168.566 262.645 169.832L258.726 174.761H256.469C256.311 173.771 256.014 173.078 255.579 172.682C255.183 172.247 254.629 172.029 253.916 172.029C253.045 172.029 252.115 172.267 251.125 172.742C250.175 173.177 249.087 174.028 247.86 175.295V192.99L256.173 195.543L254.985 197.918H235.45V196.077L240.734 191.921V175.117L235.45 172.029V170.189L245.603 165.201L247.444 172.504L253.619 166.21C254.451 165.893 255.539 165.735 256.885 165.735V165.795Z" fill="white"/>
<defs>
<linearGradient id="paint0_linear_5_35" x1="-32.0197" y1="-8.55792" x2="223.716" y2="371.267" gradientUnits="userSpaceOnUse">
<stop stop-color="#0A0D53"/>
<stop offset="1" stop-color="#000007"/>
</linearGradient>
</defs>
</svg>
